<svg viewBox="0 0 64 64" xmlns="http://www.w3.org/2000/svg">
 <path d="m33.1 41.9c0.138-1.63 1.02-2.24 2.08-1.35 1.16 0.972 2.1 3.36 2.1 5.34v10.6l-1e-3 0.124 1e-3 0.09c0 0.271-0.034 0.535-0.098 0.786-0.054 0.28-0.161 0.547-0.316 0.786a3.2 3.2 0 0 1-1.94 1.5v-12.8c0-1.82-0.799-3.99-1.83-5.08zm0.416 18a3.16 3.16 0 0 1-0.638-0.188c0.167 0.067 0.447 0.145 0.638 0.188zm-0.685-0.207a3.22 3.22 0 0 1-0.841-0.531c0.224 0.169 0.418 0.341 0.841 0.531z" fill="#838383"/>
 <path d="m34.9 47v12.8c-0.394 0.109-0.805 0.14-1.21 0.091-0.042 0.021-0.651-0.131-0.889-0.237-0.423-0.19-0.617-0.362-0.841-0.531-0.806-0.612-1.26-1.37-1.26-2.92v-12.8c0-1.97 0.941-2.79 2.1-1.82 1.16 0.972 2.1 3.36 2.1 5.34zm-12.9-42c0.282-0.283 0.578-0.543 0.887-0.779 0.262-0.269 0.536-0.517 0.821-0.744 2.68-2.64 6.56-3.22 10.9-1.11 8.36 4.06 15.3 16.5 15.6 27.8 0.124 5.88-1.61 10.3-4.49 12.6-0.262 0.258-0.54 0.5-0.832 0.724-0.28 0.287-0.574 0.551-0.881 0.791 2.43-2.43 3.85-6.56 3.74-11.9-0.238-11.3-7.22-23.7-15.6-27.8-3.97-1.93-7.54-1.62-10.2 0.445z" fill="#ababab"/>
 <path d="m32.3 9.12c6.47 3.14 11.9 12.8 12.1 21.5 0.185 8.72-4.92 13.2-11.4 10.1-6.47-3.14-11.9-12.8-12.1-21.5-0.185-8.72 4.92-13.2 11.4-10.1z" fill="#ebebeb"/>
 <path d="m32.2 4.5c8.36 4.06 15.3 16.5 15.6 27.8 0.239 11.3-6.36 17.1-14.7 13.1-8.36-4.06-15.3-16.5-15.6-27.8-0.239-11.3 6.36-17.1 14.7-13.1zm-9.18 6.44c-1.4 1.93-2.19 4.77-2.11 8.29 0.185 8.72 5.58 18.3 12.1 21.5 2.62 1.27 5.01 1.28 6.92 0.275 0.902-0.477 1.7-1.18 2.36-2.09 1.4-1.92 2.19-4.77 2.11-8.29-0.185-8.72-5.58-18.3-12.1-21.5-2.62-1.27-5.01-1.28-6.92-0.274-0.902 0.477-1.7 1.18-2.36 2.09z" fill="#d40000"/>
 <path d="m43.1 30c0 3.85-1.3 6.64-3.21 8.1-2.04 1.55-4.84 1.76-7.92-2e-3 -5.33-3.04-9.76-11.4-9.76-18.5 0-3.85 1.3-6.64 3.21-8.1 2.04-1.55 4.84-1.76 7.92 1e-3 5.33 3.04 9.76 11.4 9.76 18.5zm-2.76 0c0-6.16-3.75-13.4-8.37-16.1-1.9-1.08-3.62-1.16-4.88-0.201-1.38 1.05-2.12 3.13-2.12 5.9 0 6.16 3.75 13.4 8.37 16.1 1.9 1.08 3.62 1.16 4.88 0.201 1.38-1.05 2.12-3.13 2.12-5.9zm-3.54 2.9c0.059 0.289 0.103 0.506 0.117 0.664 0.015 0.158-0.014 0.247-0.058 0.286-0.059 0.052-0.147 0.044-0.279-0.01a5.75 5.75 0 0 1-0.557-0.297 7.1 7.1 0 0 1-0.573-0.348 1.21 1.21 0 0 1-0.308-0.24 0.49 0.49 0 0 1-0.146-0.212 0.994 0.994 0 0 1-0.074-0.255l-0.616-3.06-3.49-2-0.587 2.29a0.549 0.549 0 0 1-0.074 0.214c-0.029 0.047-0.073 0.086-0.146 0.065a0.918 0.918 0 0 1-0.294-0.082c-0.132-0.054-0.293-0.147-0.498-0.264a5.04 5.04 0 0 1-0.514-0.336c-0.132-0.097-0.22-0.19-0.264-0.3-0.044-0.089-0.059-0.225-0.044-0.345 0.015-0.141 0.044-0.316 0.103-0.538l2.86-10.3a0.686 0.686 0 0 1 0.103-0.24c0.029-0.047 0.088-0.077 0.176-0.07 0.088 0.029 0.206 0.054 0.352 0.138 0.147 0.062 0.338 0.171 0.587 0.314 0.279 0.159 0.499 0.285 0.675 0.406 0.161 0.093 0.293 0.211 0.381 0.282 0.103 0.102 0.162 0.199 0.206 0.288a2.2 2.2 0 0 1 0.102 0.379zm-4.25-12.3-1.31 4.97 2.63 1.5z" fill="#131313"/>
</svg>
