<svg version="1.1" viewBox="0 0 64 64" xmlns="http://www.w3.org/2000/svg">
 <path d="m58.7 32c0 14.6-12 26.7-26.7 26.7-14.6 0-26.7-12-26.7-26.7 0-14.6 12-26.7 26.7-26.7 14.6 0 26.7 12 26.7 26.7z" fill="#cdcdcd" fill-rule="nonzero" stroke="#00610e" stroke-width="5.33px"/>
 <path d="m44.2 44.6q0.253 0.827 0.316 1.31 0.0632 0.482-0.169 0.735-0.232 0.23-0.822 0.276-0.59 0.0689-1.62 0.0689-1.07 0-1.69-0.0459-0.59-0.023-0.906-0.115-0.316-0.115-0.442-0.299-0.126-0.184-0.211-0.482l-1.83-5.97h-10.2l-1.73 5.81q-0.0843 0.322-0.232 0.551-0.126 0.207-0.442 0.345-0.295 0.115-0.864 0.161-0.548 0.0459-1.45 0.0459-0.969 0-1.52-0.0689t-0.758-0.322q-0.211-0.276-0.147-0.758 0.0632-0.482 0.316-1.29l8.41-26.4q0.126-0.391 0.295-0.62 0.169-0.253 0.527-0.368 0.379-0.138 1.03-0.161 0.653-0.0459 1.73-0.0459 1.24 0 1.98 0.0459 0.737 0.023 1.14 0.161 0.421 0.115 0.59 0.368 0.19 0.253 0.316 0.689zm-12.5-21.8h-0.0211l-3.86 12.6h7.73z" fill="#00610e"/>
</svg>
